<?xml version="1.0" encoding="utf-8"?>
<!-- Generator: Adobe Illustrator 26.5.0, SVG Export Plug-In . SVG Version: 6.00 Build 0)  -->
<svg version="1.1" id="Layer_1" xmlns="http://www.w3.org/2000/svg" xmlns:xlink="http://www.w3.org/1999/xlink" x="0px" y="0px"
	 viewBox="0 0 900 730.57" style="enable-background:new 0 0 900 730.57;" xml:space="preserve">
<style type="text/css">
	.st0{fill:#1A1A1A;}
	.st1{fill:#E5E5E5;}
	.st2{fill:#FFFFFF;}
	.st3{fill:#F97316;}
</style>
<g>
	<g id="XMLID_00000144323797583335002570000015115900622805351809_">
		<g>
			<path class="st0" d="M898.54,344.28c2.6,10.82,1.64,21.76-2.23,32.1c-6.56,17.52-13.52,34.9-20.71,52.18
				c-19.45,46.75-39.06,93.42-58.69,140.08c-14.84,35.28-29.73,70.53-44.67,105.77c-6.39,15.08-13.01,30.07-19.41,45.13
				c-2.72,6.4-7.06,9.68-14.29,9.49c-4.07-0.11-8.16,1.06-12.26,1.51c-0.85,0.09-2.48-0.32-2.54-0.69
				c-0.28-1.69-0.68-3.71-0.01-5.12c2.29-4.82,5.38-9.27,7.51-14.14c12.08-27.55,24.06-55.13,35.88-82.78
				c15.85-37.03,31.65-74.06,47.24-111.2c17.14-40.83,34.02-81.76,51.01-122.65c2.44-5.87,5.16-11.63,7.28-17.6
				c1.85-5.16,3.56-10.47,4.38-15.86c2.31-15.27-7.59-27.21-23.16-28.41c-3-0.23-6.02-0.21-9.03-0.21
				c-91.95,0.01-183.9,0.09-275.85,0.02c-21.28-0.01-39.47,7.32-53.39,23.27c-6.15,7.05-11.13,15.53-15,24.1
				C476.37,433.03,452.55,487,428.59,540.9c-17.65,39.7-35.27,79.41-52.94,119.1c-8.91,20-17.98,39.92-26.77,59.96
				c-2.53,5.75-6.18,8.88-12.18,8.88c-0.58,0-1.17-0.03-1.8-0.09c-4.42-0.42-8.92-0.08-13.76-0.08c0.29-1.77,0.26-2.79,0.63-3.63
				c11.04-24.72,22.12-49.41,33.16-74.12c14.72-32.95,29.37-65.93,44.09-98.87c7.22-16.17,14.59-32.28,21.81-48.45
				c17.36-38.91,34.57-77.88,52.04-116.74c5.61-12.48,10.63-25.45,17.98-36.88c14.39-22.39,35.86-35.03,62.08-39.08
				c8.86-1.36,17.95-1.72,26.94-1.73c82.09-0.12,164.17-0.06,246.26-0.05c8.59,0,10.33-1.16,13.56-9.04
				c5.62-13.65-1.89-26.9-16.62-28.98c-5.11-0.72-10.29-1.17-15.45-1.17c-87.77-0.11-175.55-0.52-263.32,0.04
				c-29.7,0.19-52.13,14.55-65.03,41.75c-13.39,28.23-26.09,56.78-39.08,85.2c-21.27,46.5-42.55,92.99-63.79,139.51
				c-20.2,44.23-40.44,88.44-60.49,132.74c-7.51,16.59-14.62,33.37-21.81,50.11c-3.42,7.98-4.46,9.14-12.12,9.32
				c-0.06,0-0.12,0-0.19,0c-0.45,0.01-0.92,0.02-1.42,0.02c-0.97,0-1.95,0.01-2.92,0.02c-0.96,0-1.94,0.01-2.91,0.01
				c-1.06,0-2.14,0-3.2-0.02c-5.23-0.09-5.93-1.15-3.74-6.01c6.23-13.87,12.5-27.73,18.8-41.56c21.2-46.53,42.42-93.05,63.6-139.58
				c18.9-41.52,37.79-83.04,56.64-124.59c4.48-9.89,8.61-19.95,13.21-29.78c5.8-12.35,3.33-24.78-0.39-36.7
				c-4.71-15.11-10.96-29.74-16.54-44.58c-1.63-4.33-4.15-5.51-8.93-4.11c-14.54,4.24-29.39,6.41-44.58,4.55
				c-5.64-0.68-4.17,3-3.56,5.72c2.58,11.4,5.57,22.71,8.08,34.13c6.47,29.47,5.94,58.46-7.16,86.29
				c-12.77,27.13-33.65,45.47-61.83,55.23c-47.28,16.36-98.42,2.82-130.55-35.46c-20.79-24.77-30.5-53.64-27.68-86.45
				c1.63-18.91,5.56-37.32,9.92-55.69c0.57-2.41,1.02-4.85,1.79-8.54c-6.63,1.36-12.12,2.57-17.63,3.62
				c-22.65,4.32-44.21,1.11-64.76-9.31c-6.41-3.26-7.24-2.97-10.1,3.58c-11.5,26.36-17.98,53.97-18.32,82.67
				c-0.39,32.82,8.28,63.64,25.48,91.54c12.78,20.74,27.44,40.3,40.64,60.77c24.58,38.14,28.36,78.88,13.23,121.36
				c-5.95,16.71-17.32,29.8-31.36,40.19c-19.58,14.49-41.1,25.59-64.04,33.86c-0.25,0.09-0.51,0.14-0.8,0.16c0,0,0,0-0.01,0
				c-3.09,0.22-8.31-3.31-9.71-6.79c-1.99-4.9-1.12-9.93,3.11-13.11c3.43-2.57,7.39-4.51,11.32-6.31
				c16.87-7.73,33.63-15.62,48.29-27.33c15.79-12.6,24.94-28.89,28.2-48.67c2.48-15.04,1.67-29.94-1.49-44.81
				c-2.54-11.98-7.79-22.81-14.38-32.9c-13.22-20.28-27.57-39.87-40.34-60.43c-17.15-27.64-27.59-57.7-29.81-90.48
				c-2.68-39.38,4.61-76.84,21.05-112.54c2.98-6.48,2.78-10.97-2.1-16.57C12.95,256.32,6.5,240.07,3.81,222.05
				c-4.26-28.4,2.83-53.67,19.56-76.53c9.68-13.24,22.41-22.91,37.22-29.69c5.9-2.71,9.57-6.56,11.87-12.62
				c7.28-19.21,17.08-37.09,31.09-52.26c14.82-16.03,32.41-28.24,52.68-36.62c20.51-8.47,41.93-11.93,63.9-13.69
				c26.76-2.16,52.85,1.23,78.13,9.33c46.87,15,78.49,46.36,94.95,92.68c2.64,7.43,7.23,11.68,13.86,15.33
				c36.05,19.87,55.08,50.73,54.69,91.8c-0.26,27.75-11.05,52-32.11,71.07c-9.17,8.31-9.07,8.54-4.51,20.05
				c4.23,10.71,8.64,21.38,13.08,32.01c0.59,1.43,1.86,2.59,2.82,3.87c1.22-1.22,2.92-2.22,3.61-3.69
				c4.82-10.29,9.29-20.75,14.11-31.03c15.46-32.92,41.21-51.39,77.65-53.8c13.8-0.91,27.71-0.21,41.56-0.35
				c22.53-0.22,45.07-0.68,67.61-0.73c14.7-0.04,29.39,0.65,44.09,0.72c26.03,0.13,52.08-0.03,78.12,0.04
				c18.36,0.05,36.71,0.1,55.05,0.53c8.69,0.21,16.59,3.43,23.86,8.25c14.66,9.71,19.72,29.1,16.39,44.38
				c-1.7,7.77-1.86,8.16,5.78,11.1C884.08,318.06,894.68,328.16,898.54,344.28z M362.52,106.86c6.49-0.55,7.21-1.86,4.49-7.99
				c-10.53-23.75-26.6-42.64-49.26-55.69c-26.1-15.05-54.52-20.27-84.33-20.62c-10.63,0.92-21.3,1.59-31.88,2.87
				c-6.27,0.75-12.52,2.17-18.62,3.84c-38.51,10.59-67.57,32.6-83.74,69.99c-2.92,6.75-2.03,7.68,5.48,8.44
				c8.93,0.9,18.16,1.32,26.6,4c30.29,9.57,51.18,29.81,63.8,58.83c3.46,7.95,3.42,7.33,11.46,4.82c7.86-2.47,16.09-4.2,24.29-5.12
				c10.31-1.14,20.27,1.37,29.65,5.81c4.34,2.05,7.26,1.27,8.87-3.54c0.78-2.37,2.04-4.56,3.06-6.85
				c10.34-23.12,27.25-39.67,50.16-50.24C335.26,109.56,348.83,108.04,362.52,106.86z M336.21,380.29
				c-0.44-4.39-0.39-8.66-1.34-12.68c-5.15-21.77-10.57-43.47-15.82-65.22c-1.25-5.21-4.42-8.43-8.74-11.57
				c-8.46-6.13-17.36-12.22-24.1-20.04c-14.86-17.23-22.16-37.8-22.79-60.73c-0.08-2.9-1.92-6.7-4.19-8.42
				c-14.07-10.58-36.94-10.96-51.68-1.66c-4.39,2.78-6.31,6.3-6.54,11.52c-1.06,23.75-9.7,44.35-25.6,62.17
				c-4.07,4.56-7.45,10.41-9.21,16.25c-4.05,13.42-7.37,27.11-10.12,40.86c-2.98,14.88-6.91,29.96-6.98,44.96
				c-0.13,31.77,13.27,58.01,38.88,77.13c30.21,22.56,63.52,26.68,97.33,10.44C319.4,446.94,334.18,417.05,336.21,380.29z"/>
			<path class="st1" d="M853.9,332.09c15.57,1.2,25.47,13.14,23.16,28.41c-0.82,5.39-2.54,10.7-4.38,15.86
				c-2.13,5.97-4.85,11.73-7.28,17.6c-16.99,40.89-33.87,81.82-51.01,122.65c-15.59,37.14-31.39,74.18-47.24,111.2
				c-11.83,27.65-23.81,55.24-35.88,82.78c-2.14,4.88-5.23,9.33-7.51,14.14c-0.67,1.4-0.27,3.43,0.01,5.12l-2.46,0.72l-384.6-1.73
				v-0.01c6,0,9.65-3.13,12.18-8.88c8.8-20.04,17.87-39.96,26.77-59.96c17.67-39.69,35.29-79.4,52.94-119.1
				c23.96-53.9,47.77-107.87,72.04-161.63c3.87-8.57,8.85-17.04,15-24.1c13.92-15.95,32.11-23.28,53.39-23.27
				c91.95,0.07,183.9-0.01,275.85-0.02C847.88,331.88,850.9,331.86,853.9,332.09z"/>
			<path class="st1" d="M283.85,728.6l-1.89-0.01c7.65-0.18,8.7-1.34,12.12-9.32c7.19-16.74,14.3-33.52,21.81-50.11
				c20.05-44.3,40.29-88.51,60.49-132.74c21.24-46.52,42.52-93.02,63.79-139.51c12.99-28.42,25.69-56.97,39.08-85.2
				c12.9-27.21,35.32-41.56,65.03-41.75c87.77-0.56,175.55-0.15,263.32-0.04c5.16,0,10.34,0.45,15.45,1.17
				c14.74,2.09,22.24,15.33,16.62,28.98c-3.23,7.87-4.98,9.04-13.56,9.04c-82.09-0.01-164.17-0.07-246.26,0.05
				c-8.99,0.01-18.08,0.36-26.94,1.73c-26.21,4.05-47.69,16.69-62.08,39.08c-7.34,11.43-12.37,24.4-17.98,36.88
				c-17.47,38.86-34.68,77.83-52.04,116.74c-7.22,16.17-14.59,32.28-21.81,48.45c-14.72,32.94-29.37,65.92-44.09,98.87
				c-11.04,24.71-22.12,49.4-33.16,74.12c-0.37,0.84-0.34,1.87-0.63,3.63c4.85,0,9.34-0.34,13.76,0.08c0.62,0.06,1.21,0.09,1.8,0.09
				v0.01L283.85,728.6z"/>
			<path class="st2" d="M419.44,350.4c3.72,11.92,6.19,24.35,0.39,36.7c-4.6,9.83-8.73,19.89-13.21,29.78
				c-18.85,41.54-37.74,83.06-56.64,124.59c-21.18,46.54-42.4,93.06-63.6,139.58c-6.3,13.83-12.57,27.69-18.8,41.56
				c-2.19,4.86-1.48,5.92,3.74,6.01c1.06,0.02,2.14,0.02,3.2,0.02l-263.79,1.29c0.29-0.02,0.55-0.07,0.8-0.16
				c22.94-8.27,44.46-19.37,64.04-33.86c14.03-10.38,25.41-23.47,31.36-40.19c15.13-42.48,11.35-83.22-13.23-121.36
				c-13.2-20.47-27.86-40.04-40.64-60.77c-17.2-27.9-25.87-58.72-25.48-91.54c0.34-28.7,6.82-56.31,18.32-82.67
				c2.86-6.55,3.69-6.84,10.1-3.58c20.55,10.42,42.1,13.63,64.76,9.31c5.51-1.05,10.99-2.26,17.63-3.62
				c-0.76,3.69-1.21,6.13-1.79,8.54c-4.36,18.37-8.3,36.78-9.92,55.69c-2.82,32.81,6.89,61.69,27.68,86.45
				c32.13,38.28,83.27,51.82,130.55,35.46c28.18-9.75,49.06-28.1,61.83-55.23c13.1-27.84,13.63-56.82,7.16-86.29
				c-2.51-11.42-5.5-22.73-8.08-34.13c-0.61-2.72-2.08-6.4,3.56-5.72c15.19,1.86,30.05-0.31,44.58-4.55
				c4.78-1.39,7.3-0.22,8.93,4.11C408.48,320.66,414.73,335.3,419.44,350.4z"/>
			<path class="st2" d="M367.02,98.88c2.72,6.13,2,7.43-4.49,7.99c-13.69,1.17-27.27,2.7-39.96,8.56
				c-22.91,10.57-39.82,27.12-50.16,50.24c-1.02,2.29-2.28,4.48-3.06,6.85c-1.61,4.82-4.52,5.59-8.87,3.54
				c-9.38-4.43-19.34-6.95-29.65-5.81c-8.2,0.91-16.42,2.65-24.29,5.12c-8.04,2.52-8,3.13-11.46-4.82
				c-12.62-29.01-33.52-49.26-63.8-58.83c-8.45-2.68-17.68-3.1-26.6-4c-7.5-0.75-8.4-1.69-5.48-8.44
				c16.16-37.39,45.22-59.4,83.74-69.99c6.1-1.68,12.35-3.09,18.62-3.84c10.58-1.28,21.25-1.95,31.88-2.87
				c29.8,0.34,58.22,5.57,84.33,20.62C340.41,56.24,356.49,75.13,367.02,98.88z"/>
			<path class="st3" d="M334.87,367.61c0.95,4.02,0.9,8.29,1.34,12.68c-2.03,36.76-16.81,66.65-50.91,83.02
				c-33.81,16.24-67.12,12.12-97.33-10.44c-25.61-19.12-39.01-45.36-38.88-77.13c0.07-15.01,4-30.09,6.98-44.96
				c2.75-13.75,6.07-27.44,10.12-40.86c1.76-5.84,5.14-11.69,9.21-16.25c15.9-17.82,24.54-38.42,25.6-62.17
				c0.23-5.22,2.15-8.74,6.54-11.52c14.75-9.31,37.61-8.93,51.68,1.66c2.28,1.72,4.11,5.52,4.19,8.42
				c0.63,22.93,7.94,43.5,22.79,60.73c6.74,7.82,15.64,13.91,24.1,20.04c4.31,3.14,7.48,6.36,8.74,11.57
				C324.29,324.14,329.72,345.84,334.87,367.61z"/>
		</g>
		<g>
		</g>
	</g>
	<g id="XMLID_00000158730884479300876640000003597776457648178320_">
		<g>
			<path class="st3" d="M807.42,390.78c9.29,0.08,12.53,4.4,9.31,13.31c-4.5,12.41-9.47,24.65-14.44,36.88
				c-23.69,58.38-47.46,116.73-71.19,175.1c-4.72,11.61-9.44,23.21-14.03,34.87c-3.3,8.39-8.42,13.76-18.32,13.16
				c-7.66-0.47-15.36-0.04-23.04-0.34c-6.64-0.25-8.88-3.42-6.53-9.54c6.49-16.83,13.29-33.54,19.89-50.33
				c12.05-30.63,24.06-61.29,36.07-91.93c3.66-9.34,7.32-18.68,10.94-28.02c1.03-2.65,2.36-5.28,2.78-8.04
				c0.43-2.73-0.11-5.61-0.22-8.43c-2.64,1.48-5.97,2.38-7.81,4.54c-7.99,9.43-15.5,19.24-23.26,28.86
				c-15.2,18.86-30.45,37.68-45.68,56.51c-12.39,15.33-24.76,30.67-37.18,45.98c-14.85,18.28-29.72,36.54-44.64,54.76
				c-1.25,1.52-2.85,2.86-4.52,3.89c-5.04,3.1-9.46,1.85-10.89-3.92c-1.84-7.41-2.8-15.06-3.72-22.66
				c-2.7-22.2-5.27-44.42-7.74-66.64c-2.24-20.25-4.27-40.52-6.44-60.77c-1.24-11.62-2.57-23.24-3.88-34.86
				c-0.07-0.66-0.07-1.46-0.44-1.93c-1.65-2.16-3.43-4.21-5.16-6.31c-1.92,1.72-4.68,3.06-5.62,5.21
				c-5.09,11.63-9.68,23.47-14.53,35.21c-17.64,42.79-35.32,85.57-53,128.34c-2.55,6.18-5.27,12.28-7.79,18.47
				c-3.27,8.03-8.87,12.31-17.81,11.66c-3-0.22-6.02-0.03-9.03-0.2c-5.08-0.29-6.55-2.48-4.61-7.29
				c6.08-15.02,12.2-30.03,18.48-44.97c15.74-37.43,31.55-74.83,47.37-112.22c9.96-23.55,20.02-47.06,29.97-70.62
				c3.18-7.54,6.12-15.18,9.19-22.78c4.61-11.44,9.38-14.72,21.61-14.81c5.01-0.03,10.03,0,15.05,0c0,0.02,0,0.04,0,0.06
				c6.18,0,12.37-0.13,18.55,0.04c6.28,0.17,9.26,2.45,10.39,8.66c1.38,7.54,2.26,15.19,3.19,22.81
				c2.48,20.38,4.95,40.77,7.29,61.18c1.55,13.61,2.87,27.24,4.29,40.86c0.77,7.31,1.22,14.68,2.5,21.89
				c0.47,2.62,2.48,5.76,4.7,6.96c1.33,0.72,5.09-1.29,6.64-3.05c9.26-10.54,18.28-21.29,27.22-32.09
				c13.2-15.96,26.24-32.04,39.39-48.03c11.03-13.41,22.12-26.77,33.22-40.12c8.97-10.78,18.01-21.51,27.03-32.25
				c4.25-5.08,9.64-7.33,16.32-7.22C780.66,390.83,794.04,390.68,807.42,390.78z"/>
		</g>
		<g>
		</g>
	</g>
	<path class="st0" d="M218.97,260.17c-0.15,0.87-0.11,2.3-0.62,3.48c-4.78,10.99-9.29,22.13-14.65,32.83
		c-3.02,6.04-9.42,7.32-14.97,4.32c-5.38-2.91-7.81-9.15-5.3-14.9c4.19-9.62,8.65-19.12,13.14-28.61c0.91-1.92,2.29-3.69,3.73-5.28
		c3.33-3.65,8.69-4.65,13.31-2.66C218.21,251.34,218.99,255.33,218.97,260.17z"/>
	<path class="st0" d="M260.34,247.08c2.87,2.21,6.91,3.81,8.4,6.73c5.4,10.52,10.25,21.37,14.71,32.33
		c2.66,6.53-0.5,12.82-6.54,15.2c-5.8,2.29-11.42,0.15-14.36-6.37c-4.86-10.8-9.52-21.72-13.64-32.82
		C246.32,255.14,252.09,248.06,260.34,247.08z"/>
</g>
<g>
</g>
<g>
</g>
<g>
</g>
<g>
</g>
<g>
</g>
</svg>
