<?xml version="1.0" encoding="utf-8"?>
<!-- Generator: Adobe Illustrator 26.5.0, SVG Export Plug-In . SVG Version: 6.00 Build 0)  -->
<svg version="1.1" id="Layer_1" xmlns="http://www.w3.org/2000/svg" xmlns:xlink="http://www.w3.org/1999/xlink" x="0px" y="0px"
	 viewBox="0 0 899.99 756.18" style="enable-background:new 0 0 899.99 756.18;" xml:space="preserve">
<style type="text/css">
	.st0{fill:#FFFFFF;}
	.st1{fill:#1A1A1A;}
	.st2{fill:#E5E5E5;}
	.st3{fill:#F97316;}
	.st4{fill:#F97316;stroke:#1A1A1A;stroke-width:14;stroke-miterlimit:10;}
</style>
<g>
	<g id="XMLID_00000151543841947437356760000011111234621399017103_">
		<g>
			<path class="st0" d="M550.39,646.84c5.06-0.02,8.88,4.53,8.05,9.5c-1.32,7.88-2.54,15.46-4.72,22.78
				c-6.7,22.42-18.57,42.04-40.42,54.96c-4.23,2.5-9.84,4.23-14.83,4.24c-109.21,0.3-209.55,0.49-318.74,0.3
				c-9.96,0.1-21.54,0.08-32.55-5.36c-75.91-33.16-112.51-89.12-127.36-164c-7.36-37.09-3.16-73.8,4.18-110.56
				c11.55-57.85,22.69-115.81,43.26-171.65c23.79-64.6,48.13-129.05,73.38-193.19c32.67-83,129.39-92.57,184.67-64.4
				c38.03,19.4,56.74,49.25,53.9,89.85c-0.12,1.64-0.32,3.3-0.59,4.92c-0.1,0.69-0.46,1.34-1.07,2.99c-2.3-0.96-4.5-1.78-6.61-2.76
				c-24.72-11.6-46.4-9.05-67.22,7.98c-11.43,9.35-19.28,20.77-22.61,34.6c-4.97,20.7,3.55,36.97,24.22,46.1
				c5.48,2.4,11.33,4.06,17.62,6.27c-2.69,5.51-5.95,10.62-7.73,16.13c-5.19,16-11.58,31.91-14.22,48.32
				c-4.79,29.7,7.1,54.81,30.56,75.15c15.66,13.58,31.88,26.6,47.6,40.11c6.29,5.43,11.92,11.52,18.96,18.37
				c-25.08,5.9-48.67,11.74-72.43,16.98c-26.42,5.83-53.2,9.57-80.46,9.54c-5.78,0-10.54,1.56-10.33,7.75
				c0.2,5.87,5.04,6.85,10.4,6.93c36.43,0.56,71.6-6.71,106.59-14.83c36.21-8.39,72.3-17.2,108.54-25.43
				c7.1-1.62,14.68-2.16,22.02-2.06c11.96,0.17,17.98,7.95,15.19,18.74c-2.96,11.48-10.32,20.6-19.79,28.04
				c-7.58,5.95-15.91,11.08-24.13,16.27c-4.75,2.99-8.13,6.36-4.5,11.6c3.37,4.82,8.2,3.84,12.84,1.39
				c1.78-0.95,3.45-2.03,5.16-3.06c8.03-4.84,10.35-4.21,13.95,3.94c4.02,9.06,2.15,17.64-3.03,25.77
				c-7.09,11.14-17.54,19.26-29.7,25.01c-12.68,6-26.06,10.79-39.23,15.91c-4.97,1.93-10.25,3.89-8.1,9.91
				c2.16,6.04,7.66,6.05,13.36,4.14c5.26-1.76,10.55-3.43,17.08-5.55c3.96,10.91,2.05,20.56-5.46,27.82
				c-8.37,8.05-17.62,16.54-28.34,21.04c-20.12,8.44-41.57,14.15-62.49,20.95c-2.4,0.79-5.72,0.59-7.2,2.06
				c-2.3,2.28-5.11,5.95-4.53,8.39c0.54,2.28,4.97,4.35,8.13,5.33c2.08,0.66,5.01-0.49,7.41-1.25
				c21.17-6.82,42.33-13.73,63.48-20.61c0.88-0.27,1.79-0.46,3.45-0.86c-0.64,2.18-1.18,3.67-1.54,5.19
				c-1.47,6.36,1.45,10.13,8.56,10.33c7.91,0.25,15.85,0.05,23.78,0.03c37.85-0.02,75.69-0.05,113.56-0.07
				C550.34,646.84,550.37,646.84,550.39,646.84z M245.04,115.24c0.03-12.87-6.53-21.27-16.81-21.51
				c-10.06-0.22-17.64,8.4-18.2,20.72c-0.54,12.29,6.82,22.41,16.61,22.8C237.13,137.63,245.02,128.2,245.04,115.24z"/>
			<path class="st1" d="M893.26,228.78c4.7,0.42,7.8,5.09,6.39,9.59c-10.15,32.52-22,72.84-31.66,103.85
				c-30.34,97.63-60.54,195.29-90.93,292.88c-0.02,0.05-0.03,0.08-0.05,0.14c-2.76,8.66-10.1,12.14-19.5,12.46
				c-36.63,1.25-140.82-1.67-175.22-0.52c-6.36,0.22-8.52,4.16-9.28,8.2c-13.7,73.09-49.7,90.19-49.7,90.19
				c-11.13,7.34-22.85,8.25-31.42,8.32c-219.29,1.64-276.11,3.3-316,1.52c-10.79-0.47-25.05,0.78-44.88-8.22
				C51.07,710.95,16.45,636.31,4.09,574.45c-8.52-42.62-2.18-84.45,4.95-126.7C26.01,347.43,61,252.04,98.42,157.18
				c9.01-22.85,17.1-46.02,26.33-68.79C163.65-7.5,281.64-18.69,345.61,22.94c40.01,26.04,54.79,62.06,49.14,106.02
				c-0.69,5.39,0.27,8.66,5.68,10.54c14.78,5.16,29.56,10.33,44.37,15.39c8.61,2.94,17.79,4.8,25.87,8.64
				c16.81,7.98,19.96,25.11,6.09,36.95c-7.46,6.34-17.15,11.28-26.74,14.51c-29.07,9.79-59.49,11.08-90.07,9.22
				c-20.82-1.25-20.8-1.49-29.14,16.1c-7.85,16.57-13.39,33.62-14.1,51.9c-0.79,20.9,7.1,38.51,23.2,52.83
				c19.89,17.71,40.2,34.99,60.31,52.48c1.67,1.45,3.67,2.77,4.8,4.55c6.32,9.89,14.92,10.7,25.94,7.12
				c5.63-1.83,8.81-3.86,10.65-9.32c19.19-57.01,54.69-148.95,75.66-209.11c1.78-5.06,6.6-8.42,11.96-8.34l333.49,5.06
				c6.34,0.1,10.65,6.48,8.37,12.4l-10.42,27.09C869.13,227.21,881.83,227.75,893.26,228.78z M879.39,249.79
				c0.66-2.13,1.17-4.31,1.88-7.02c-3.62-0.17-6.14-0.36-8.66-0.41c-23.02-0.44-46.02-0.86-69.01-1.3
				c-78.72-1.51-157.46-2.98-236.18-4.62c-5.45-0.12-8.08,1.25-9.76,6.32c-17.71,53.29-35.73,106.47-53.44,159.74
				c-0.73,2.16-0.1,5.77,1.47,7.36c8.61,8.74,10.21,18.79,7.51,29.76c-2.74,11.11-9.12,20.43-17.42,28.72
				c-2.55,2.54-5.11,5.06-7.51,7.44c16.27,21.97,15,42.73-5.04,61.54c-9.2,8.61-20.95,14.88-31.3,22.49
				c-1.91,1.42-4.18,4.52-3.72,6.29c4.75,18.45-2.05,33.11-15.47,46.54c-4.65,4.65-6.83,11.43-11.16,19.08c5.65,0,8.39,0,11.11,0
				c106.35-0.07,212.71-0.2,319.06-0.07c6.85,0.02,9.79-1.91,11.69-8C801.96,499.01,840.7,374.41,879.39,249.79z M855.2,204.84
				c1-2.69-0.96-5.55-3.82-5.56l-314.33-3.35c-3.06-0.03-5.82,1.91-6.8,4.82c-19.38,56.67-50.83,138.67-69.44,193.85
				c-0.86,2.57-1.54,5.19-2.5,8.49c7.83-0.54,14.41-1.61,20.9-1.29c6.24,0.32,8.74-1.54,10.6-7.12
				c18.03-54.39,36.49-108.64,54.69-162.97c2.18-6.49,5.07-10.62,13.68-10.42c74.87,1.67,149.75,3.13,224.63,4.45
				c21.41,0.37,43.07,1.01,64.28,1.01L855.2,204.84z M558.44,656.35c0.83-4.97-2.99-9.52-8.05-9.5c-0.02,0-0.05,0-0.07,0
				c-37.86,0.02-75.71,0.05-113.56,0.07c-7.93,0.02-15.86,0.22-23.78-0.03c-7.1-0.2-10.03-3.97-8.56-10.33
				c0.36-1.52,0.9-3.01,1.54-5.19c-1.66,0.41-2.57,0.59-3.45,0.86c-21.16,6.88-42.31,13.8-63.48,20.61
				c-2.4,0.76-5.33,1.91-7.41,1.25c-3.16-0.98-7.59-3.04-8.13-5.33c-0.57-2.44,2.23-6.1,4.53-8.39c1.49-1.47,4.8-1.27,7.2-2.06
				c20.92-6.8,42.36-12.51,62.49-20.95c10.72-4.5,19.97-12.99,28.34-21.04c7.51-7.25,9.42-16.91,5.46-27.82
				c-6.53,2.11-11.82,3.79-17.08,5.55c-5.7,1.91-11.2,1.89-13.36-4.14c-2.15-6.02,3.13-7.98,8.1-9.91
				c13.17-5.12,26.55-9.91,39.23-15.91c12.16-5.75,22.61-13.87,29.7-25.01c5.17-8.13,7.05-16.71,3.03-25.77
				c-3.6-8.15-5.92-8.78-13.95-3.94c-1.71,1.03-3.38,2.11-5.16,3.06c-4.63,2.45-9.47,3.43-12.84-1.39c-3.64-5.24-0.25-8.61,4.5-11.6
				c8.22-5.19,16.56-10.32,24.13-16.27c9.47-7.44,16.83-16.56,19.79-28.04c2.79-10.79-3.23-18.57-15.19-18.74
				c-7.34-0.1-14.92,0.44-22.02,2.06c-36.24,8.24-72.33,17.05-108.54,25.43c-34.99,8.12-70.16,15.39-106.59,14.83
				c-5.36-0.08-10.2-1.07-10.4-6.93c-0.2-6.19,4.55-7.75,10.33-7.75c27.26,0.03,54.05-3.7,80.46-9.54
				c23.76-5.24,47.35-11.08,72.43-16.98c-7.04-6.85-12.67-12.94-18.96-18.37c-15.73-13.51-31.95-26.53-47.6-40.11
				c-23.46-20.34-35.34-45.46-30.56-75.15c2.64-16.4,9.03-32.32,14.22-48.32c1.78-5.51,5.04-10.62,7.73-16.13
				c-6.29-2.22-12.14-3.87-17.62-6.27c-20.67-9.13-29.19-25.4-24.22-46.1c3.33-13.83,11.18-25.25,22.61-34.6
				c20.82-17.03,42.5-19.58,67.22-7.98c2.11,0.98,4.31,1.79,6.61,2.76c0.61-1.66,0.96-2.3,1.07-2.99c0.27-1.62,0.47-3.28,0.59-4.92
				c2.84-40.6-15.86-70.45-53.9-89.85c-55.28-28.17-152-18.6-184.67,64.4c-25.25,64.14-49.58,128.59-73.38,193.19
				C46.69,342.9,35.55,400.86,24,458.71c-7.34,36.76-11.53,73.48-4.18,110.56c14.85,74.88,51.44,130.84,127.36,164
				c11.01,5.45,22.59,5.46,32.55,5.36c109.2,0.19,209.53,0,318.74-0.3c4.99-0.02,10.6-1.74,14.83-4.24
				c21.85-12.92,33.72-32.54,40.42-54.96C555.9,671.81,557.12,664.23,558.44,656.35z M462.87,191.12
				c6.93-5.16,6.32-10.79-1.54-14.49c-5.39-2.55-11.36-4.31-17.28-5.58c-23.13-4.97-44.66-13.39-64.96-24.74
				c-7.41-4.14-15.12-7.93-22.98-11.3c-10.21-4.4-20.72-3.75-30.14,1.67c-6.41,3.69-12.63,8.22-17.55,13.48
				c-22.56,24.15-14.07,47.99,19.74,54.3c16.44,3.08,33.37,3.91,50.07,5.75c23.78-1.3,47.22-2.79,69.42-11.13
				C453.01,197.06,458.38,194.46,462.87,191.12z"/>
			<path class="st2" d="M881.27,242.77c-0.71,2.71-1.22,4.89-1.88,7.02c-38.69,124.62-77.44,249.22-115.96,373.87
				c-1.89,6.09-4.84,8.02-11.69,8c-106.35-0.14-212.71,0-319.06,0.07c-2.72,0-5.46,0-11.11,0c4.33-7.64,6.51-14.43,11.16-19.08
				c13.43-13.43,20.23-28.09,15.47-46.54c-0.46-1.78,1.81-4.87,3.72-6.29c10.35-7.61,22.1-13.88,31.3-22.49
				c20.04-18.81,21.31-39.57,5.04-61.54c2.4-2.38,4.95-4.9,7.51-7.44c8.3-8.29,14.68-17.6,17.42-28.72
				c2.71-10.98,1.1-21.02-7.51-29.76c-1.57-1.59-2.2-5.19-1.47-7.36c17.71-53.27,35.73-106.46,53.44-159.74
				c1.67-5.07,4.31-6.44,9.76-6.32c78.72,1.64,157.46,3.11,236.18,4.62c23,0.44,46,0.86,69.01,1.3
				C875.13,242.42,877.65,242.6,881.27,242.77z M809.47,322.84c0.49-1.72,0.54-3.55,0.98-6.49c-9.39,0-18.06,0.41-26.65-0.14
				c-6.68-0.41-10.59,1.66-14.32,6.9c-40.99,57.65-82.29,115.11-123.52,172.61c-1.56,2.2-3.28,4.3-5.8,7.56
				c-0.93-5.77-1.66-9.72-2.18-13.7c-7.59-57.18-15.22-114.35-22.66-171.56c-0.56-4.23-2.25-5.9-7.1-5.75
				c-9.01,0.27-18.03-0.2-27.04-0.44c-5.29-0.14-7.36,2.05-8.78,6.78c-22.76,75.78-45.73,151.49-68.63,227.23
				c-0.64,2.15-1.1,4.36-1.86,7.42c8.13,0,15.34-0.61,22.36,0.17c7.83,0.86,10.48-2.28,12.35-8.71
				c16.39-56.58,33.06-113.08,49.67-169.6c0.52-1.78,1.34-3.47,2.01-5.21c1.98,5.43,2.81,10.54,3.52,15.66
				c7.36,53.17,14.65,106.35,22.19,159.51c0.42,2.98,2.76,7.98,4.6,8.15c6.04,0.54,12.7,3.06,17.66-4.13
				c18.42-26.69,37.48-53,56.28-79.45c22.8-32.08,45.58-64.16,68.37-96.24c0.79,0.39,0.59,0.29,1.4,0.68
				c-17.77,60.37-35.55,120.76-53.63,182.2c9.06,0,16.49-0.51,23.79,0.14c6.88,0.61,9.66-1.47,11.45-7.76
				C765.58,473.35,787.58,398.12,809.47,322.84z"/>
			<path class="st2" d="M851.37,199.27c2.86,0.02,4.82,2.87,3.82,5.56l-8.1,21.92c-21.21,0-42.87-0.64-64.28-1.01
				c-74.88-1.32-149.76-2.77-224.63-4.45c-8.61-0.2-11.5,3.92-13.68,10.42c-18.2,54.34-36.66,108.59-54.69,162.97
				c-1.86,5.58-4.36,7.44-10.6,7.12c-6.49-0.32-13.07,0.74-20.9,1.29c0.96-3.3,1.64-5.92,2.5-8.49
				c18.6-55.18,50.06-137.18,69.44-193.85c0.98-2.91,3.74-4.85,6.8-4.82L851.37,199.27z"/>
			<path class="st3" d="M810.45,316.35c-0.44,2.94-0.49,4.77-0.98,6.49c-21.88,75.27-43.88,150.51-65.55,225.83
				c-1.79,6.29-4.57,8.37-11.45,7.76c-7.31-0.64-14.73-0.14-23.79-0.14c18.08-61.44,35.85-121.83,53.63-182.2
				c-0.81-0.39-0.61-0.29-1.4-0.68c-22.8,32.08-45.58,64.16-68.37,96.24c-18.81,26.45-37.86,52.76-56.28,79.45
				c-4.95,7.19-11.62,4.67-17.66,4.13c-1.84-0.17-4.18-5.17-4.6-8.15c-7.54-53.15-14.83-106.34-22.19-159.51
				c-0.71-5.12-1.54-10.23-3.52-15.66c-0.68,1.74-1.49,3.43-2.01,5.21c-16.61,56.52-33.28,113.02-49.67,169.6
				c-1.86,6.43-4.52,9.57-12.35,8.71c-7.02-0.78-14.22-0.17-22.36-0.17c0.76-3.06,1.22-5.28,1.86-7.42
				c22.9-75.74,45.86-151.46,68.63-227.23c1.42-4.74,3.48-6.92,8.78-6.78c9.01,0.24,18.03,0.71,27.04,0.44
				c4.85-0.15,6.54,1.52,7.1,5.75c7.44,57.21,15.07,114.39,22.66,171.56c0.52,3.97,1.25,7.93,2.18,13.7
				c2.52-3.26,4.24-5.36,5.8-7.56c41.23-57.5,82.53-114.96,123.52-172.61c3.74-5.24,7.64-7.31,14.32-6.9
				C792.39,316.76,801.06,316.35,810.45,316.35z"/>
			<path class="st3" d="M461.33,176.63c7.86,3.7,8.47,9.33,1.54,14.49c-4.5,3.33-9.86,5.94-15.22,7.97
				c-22.2,8.34-45.64,9.83-69.42,11.13c-16.71-1.84-33.64-2.67-50.07-5.75c-33.81-6.31-42.29-30.15-19.74-54.3
				c4.92-5.26,11.14-9.79,17.55-13.48c9.42-5.43,19.92-6.07,30.14-1.67c7.86,3.37,15.58,7.15,22.98,11.3
				c20.29,11.35,41.82,19.77,64.96,24.74C449.97,172.32,455.94,174.08,461.33,176.63z"/>
			<path class="st1" d="M228.23,93.73c10.28,0.24,16.84,8.64,16.81,21.51c-0.02,12.95-7.91,22.39-18.4,22
				c-9.79-0.39-17.15-10.5-16.61-22.8C210.59,102.14,218.17,93.51,228.23,93.73z"/>
		</g>
		<g>
		</g>
	</g>
</g>
<path class="st4" d="M401.33,729.81l-35.39-60.98c-7.2-12.41-1.38-33.65,19.73-28.11c5.04,1.32,10.09-1.61,11.65-4.97l4.07-8.79
	c3.86-11.65,30.74-9.19,32.79-0.16l3.27,11.51c0.79,3.11,8.18,4.94,12.55,3.54c22.18-7.11,25.77,5,19.93,22.46l-28.62,64.47
	C435.72,741.4,408.46,742.1,401.33,729.81z"/>
<path class="st4" d="M530.96,729.81l-35.39-60.98c-7.2-12.41-1.38-33.65,19.73-28.11c5.04,1.32,10.09-1.61,11.65-4.97l4.07-8.79
	c3.86-11.65,30.74-9.19,32.79-0.16l3.27,11.51c0.79,3.11,8.18,4.94,12.55,3.54c22.18-7.11,25.77,5,19.93,22.46l-28.62,64.47
	C565.35,741.4,538.09,742.1,530.96,729.81z"/>
<g>
</g>
<g>
</g>
<g>
</g>
<g>
</g>
<g>
</g>
</svg>
